<svg xmlns="http://www.w3.org/2000/svg" width="34.695" height="26.582" viewBox="0 0 34.695 26.582"><defs><style>.a{fill:#f4dbd4;}</style></defs><path class="a" d="M33.457,69.9a2.307,2.307,0,0,0-2.086-1.352H26.582v-.036a1.123,1.123,0,0,0-.593-.989,4.554,4.554,0,0,0,1.172-3.067,4.6,4.6,0,0,0-4.6-4.6A5,5,0,0,0,21.413,60L10.925,62.825a2.858,2.858,0,0,0-1.614,4.565H9.235a1.124,1.124,0,0,0-1.123,1.123v.036H3.324A2.307,2.307,0,0,0,1.238,69.9a15.872,15.872,0,0,0,0,12.289,2.307,2.307,0,0,0,2.086,1.352H6.7l-.259,1.811H6.338a.543.543,0,0,0,0,1.087h4.056a.543.543,0,0,0,0-1.087h-.108l-.259-1.811H24.668l-.259,1.811H24.3a.543.543,0,0,0,0,1.087h4.056a.543.543,0,0,0,0-1.087h-.108l-.259-1.811h3.381a2.307,2.307,0,0,0,2.086-1.352,15.872,15.872,0,0,0,0-12.289ZM22.562,60.944a3.517,3.517,0,0,1,3.513,3.513,3.475,3.475,0,0,1-1.231,2.665V63.878a1.124,1.124,0,0,0-1.123-1.123H21.4a1.124,1.124,0,0,0-1.123,1.123v3.244a3.475,3.475,0,0,1-1.231-2.665A3.517,3.517,0,0,1,22.562,60.944Zm-1.2,4.129v-1.2a.036.036,0,0,1,.036-.036h2.318a.036.036,0,0,1,.036.036v1.2Zm2.39,1.087v1.231h-2.39V66.16Zm-4.97-4.325a4.593,4.593,0,0,0,.233,5.556H13.794a2.855,2.855,0,0,0-.535-4.069Zm-7.234,2.007a1.775,1.775,0,1,1-1.775,1.775A1.777,1.777,0,0,1,11.553,63.842ZM9.2,68.514a.036.036,0,0,1,.036-.036H25.46a.036.036,0,0,1,.036.036v1.159a.036.036,0,0,1-.036.036H9.235a.036.036,0,0,1-.036-.036V68.514ZM7.544,85.354l.42-2.939A.036.036,0,0,1,8,82.384h.733a.036.036,0,0,1,.036.031l.42,2.939Zm17.963,0,.42-2.939a.036.036,0,0,1,.036-.031H26.7a.036.036,0,0,1,.036.031l.42,2.939Zm6.963-3.615a1.218,1.218,0,0,1-1.1.718h-.153V73.729a.543.543,0,0,0-1.087,0v8.728h-2.3l-.028-.195A1.128,1.128,0,0,0,26.7,81.3h-.733a1.128,1.128,0,0,0-1.111.964l-.028.195H9.872l-.028-.195A1.128,1.128,0,0,0,8.732,81.3H8a1.128,1.128,0,0,0-1.111.964l-.028.195h-2.3V73.729a.543.543,0,0,0-1.087,0v8.728H3.324a1.218,1.218,0,0,1-1.1-.718,14.793,14.793,0,0,1,0-11.384,1.218,1.218,0,0,1,1.1-.718h.153v1.775a.543.543,0,0,0,1.087,0V69.636H8.112v.036A1.124,1.124,0,0,0,9.235,70.8h1.2v.036a.543.543,0,0,0,1.087,0V70.8H23.178v.036a.543.543,0,0,0,1.087,0V70.8h1.2a1.124,1.124,0,0,0,1.123-1.123v-.036h3.549v1.775a.543.543,0,0,0,1.087,0V69.636h.153a1.218,1.218,0,0,1,1.1.718,14.792,14.792,0,0,1,0,11.384Z" transform="translate(0 -59.858)"/></svg>