<svg xmlns="http://www.w3.org/2000/svg" width="59.484" height="45.809" viewBox="0 0 59.484 45.809"><defs><style>.a{fill:#3d5161;stroke:#3d5161;}</style></defs><g transform="translate(0.5 -59.358)"><g transform="translate(0 59.858)"><path class="a" d="M56.4,76.789a3.889,3.889,0,0,0-3.517-2.279H44.809v-.061a1.894,1.894,0,0,0-1-1.668,7.676,7.676,0,0,0,1.976-5.17,7.762,7.762,0,0,0-7.753-7.753A8.433,8.433,0,0,0,36.1,60.1L18.416,64.86a4.817,4.817,0,0,0-2.721,7.7h-.128a1.9,1.9,0,0,0-1.893,1.892v.061H5.6a3.888,3.888,0,0,0-3.517,2.279,26.755,26.755,0,0,0,0,20.716A3.889,3.889,0,0,0,5.6,99.783h5.7l-.436,3.052h-.183a.916.916,0,0,0,0,1.832h6.837a.916.916,0,0,0,0-1.832h-.183L16.9,99.783h24.68l-.436,3.052h-.183a.916.916,0,0,0,0,1.832H47.8a.916.916,0,0,0,0-1.832h-.183l-.436-3.052h5.7A3.889,3.889,0,0,0,56.4,97.5a26.756,26.756,0,0,0,0-20.715Zm-18.365-15.1a5.928,5.928,0,0,1,5.922,5.922A5.858,5.858,0,0,1,41.879,72.1V66.634a1.9,1.9,0,0,0-1.893-1.893H36.079a1.9,1.9,0,0,0-1.893,1.893V72.1a5.858,5.858,0,0,1-2.076-4.492A5.929,5.929,0,0,1,38.033,61.689Zm-2.014,6.959V66.634a.061.061,0,0,1,.061-.061h3.907a.061.061,0,0,1,.061.061v2.015Zm4.029,1.832v2.076H36.018V70.48Zm-8.379-7.29a7.742,7.742,0,0,0,.392,9.365H23.253a4.813,4.813,0,0,0-.9-6.859ZM19.474,66.573a2.991,2.991,0,1,1-2.991,2.991A2.995,2.995,0,0,1,19.474,66.573Zm-3.968,7.875a.061.061,0,0,1,.061-.061H42.917a.061.061,0,0,1,.061.061V76.4a.061.061,0,0,1-.061.061H15.567a.061.061,0,0,1-.061-.061V74.448Zm-2.79,28.387.708-4.954a.061.061,0,0,1,.06-.052H14.72a.061.061,0,0,1,.06.052l.707,4.954Zm30.28,0,.708-4.954a.061.061,0,0,1,.06-.052H45a.061.061,0,0,1,.06.052l.707,4.954Zm11.737-6.094a2.053,2.053,0,0,1-1.852,1.21h-.258V83.239a.916.916,0,1,0-1.832,0V97.952H46.92l-.047-.329A1.9,1.9,0,0,0,45,96H43.764a1.9,1.9,0,0,0-1.873,1.625l-.047.329h-25.2l-.047-.329A1.9,1.9,0,0,0,14.72,96H13.484a1.9,1.9,0,0,0-1.873,1.625l-.047.329H7.692V83.239a.916.916,0,1,0-1.832,0V97.952H5.6a2.053,2.053,0,0,1-1.852-1.21,24.937,24.937,0,0,1,0-19.191A2.053,2.053,0,0,1,5.6,76.341h.258v2.991a.916.916,0,0,0,1.832,0V76.341h5.983V76.4a1.9,1.9,0,0,0,1.893,1.893h2.015v.061a.916.916,0,0,0,1.832,0v-.061H39.071v.061a.916.916,0,0,0,1.832,0v-.061h2.015A1.9,1.9,0,0,0,44.809,76.4v-.061h5.983v2.991a.916.916,0,0,0,1.832,0V76.341h.257a2.053,2.053,0,0,1,1.852,1.21,24.935,24.935,0,0,1,0,19.191Z" transform="translate(0 -59.858)"/></g></g></svg>