<svg xmlns="http://www.w3.org/2000/svg" width="30.17" height="30.17" viewBox="0 0 30.17 30.17"><defs><style>.a{fill:none;stroke:#f4dbd4;stroke-linecap:round;stroke-linejoin:round;stroke-width:3px;}</style></defs><g transform="translate(1.5 1.5)"><path class="a" d="M24.377,5.7a1.7,1.7,0,0,1,1.7-1.7h3.4a1.7,1.7,0,0,1,1.7,1.7v7.7a1.7,1.7,0,0,1-1.7,1.7h-3.4a1.7,1.7,0,0,1-1.7-1.7ZM4,22.679a1.7,1.7,0,0,1,1.7-1.7h3.4a1.7,1.7,0,0,1,1.7,1.7v6.792a1.7,1.7,0,0,1-1.7,1.7H5.7a1.7,1.7,0,0,1-1.7-1.7ZM4,5.7A1.7,1.7,0,0,1,5.7,4h12a1.7,1.7,0,0,1,1.7,1.7v7.7a1.7,1.7,0,0,1-1.7,1.7H5.7A1.7,1.7,0,0,1,4,13.4ZM15.776,22.679a1.7,1.7,0,0,1,1.7-1.7h12a1.7,1.7,0,0,1,1.7,1.7v6.792a1.7,1.7,0,0,1-1.7,1.7h-12a1.7,1.7,0,0,1-1.7-1.7Z" transform="translate(-4 -4)"/></g></svg>