<svg xmlns="http://www.w3.org/2000/svg" width="57.747" height="31.502" viewBox="0 0 57.747 31.502"><defs><style>.a{fill:#3d5161;stroke:#3d5161;stroke-width:0.6px;}</style></defs><path class="a" d="M65.268,24.823l-2.228,0a10.008,10.008,0,0,0-4.344,1.01L53.23,28.519l-.264-.41a3.311,3.311,0,0,0-2.737-1.515l-4.11-.061a10.39,10.39,0,0,0-5.54,1.6L24.263,38.674a1.121,1.121,0,0,0-.484.7,1.106,1.106,0,0,0,.155.833l.6.928-2.789,1.8a1.1,1.1,0,0,0-.324,1.528l.6.928-5.47,3.536a1.105,1.105,0,0,0,1.2,1.857l5.47-3.541.6.928.6.928-5.475,3.54a1.1,1.1,0,0,0-.328,1.524,1.113,1.113,0,0,0,.928.509,1.09,1.09,0,0,0,.6-.177l5.475-3.541.6.933a1.112,1.112,0,0,0,.7.479,1.194,1.194,0,0,0,.233.026,1.081,1.081,0,0,0,.6-.177l2.789-1.8,1.8,2.785a5.536,5.536,0,0,0,7.642,1.645l11.14-7.2A5.529,5.529,0,0,0,52.751,40l-.367-.57,2.314-.6A3.3,3.3,0,0,0,56.939,34.4l4.857-2.53a5.552,5.552,0,0,1,2.483-.626l1.066-.013a2.212,2.212,0,0,0,2.185-2.267l-.048-1.986A2.2,2.2,0,0,0,65.268,24.823Zm0,2.215.052,1.982-1.066.013a7.8,7.8,0,0,0-3.48.877L55.8,32.5l-1.364-2.107,5.233-2.565a7.721,7.721,0,0,1,3.372-.781ZM46.089,28.743l4.106.056a1.106,1.106,0,0,1,.915.505L54.8,35.017a1.116,1.116,0,0,1-.656,1.68l-3.8.976a1.109,1.109,0,0,0-.652,1.671l1.2,1.857a3.322,3.322,0,0,1-.984,4.585l-.928.6-3-4.646a3.315,3.315,0,0,0-4.49-1.032.353.353,0,0,0-.052.026l-.039.026-5.574,3.6a3.314,3.314,0,0,0-.984,4.585l2.893,4.464A3.31,3.31,0,0,1,34.185,52l-2.4-3.713v0l-4.8-7.422-.6-.928,15.388-9.948A8.027,8.027,0,0,1,46.089,28.743ZM67.66,34.456a1.11,1.11,0,0,0-.971.579,36.428,36.428,0,0,1-2.25,3.536c-1.287,1.841-2.306,3.294-2.306,5.173a5.527,5.527,0,0,0,11.053,0c0-1.879-1.015-3.333-2.3-5.173a36.278,36.278,0,0,1-2.254-3.536A1.113,1.113,0,0,0,67.66,34.456Zm0,3.281c.491.778.968,1.464,1.412,2.1,1.105,1.583,1.9,2.723,1.9,3.908a3.316,3.316,0,1,1-6.632,0c0-1.183.8-2.329,1.9-3.912C66.69,39.2,67.169,38.511,67.66,37.737Zm-24.468,4.7a1.241,1.241,0,0,1,.237.026,1.082,1.082,0,0,1,.7.479l3,4.646-7.426,4.8-3-4.641a1.105,1.105,0,0,1-.151-.833,1.082,1.082,0,0,1,.479-.7l4.067-2.634.272,2.457-1.321.855a1.105,1.105,0,0,0,.6,2.034,1.09,1.09,0,0,0,.6-.177l1.891-1.226a1.108,1.108,0,0,0,.5-1.049Zm-17.465.553,3.6,5.566-1.857,1.2-1.8-2.785-1.2-1.857-.6-.928Z" transform="translate(-15.739 -24.523)"/></svg>