<svg xmlns="http://www.w3.org/2000/svg" width="62.421" height="51.191" viewBox="0 0 62.421 51.191"><defs><style>.a{fill:#3d5161;stroke:#3d5161;}</style></defs><g transform="translate(0.5 -3.517)"><g transform="translate(0 4.017)"><path class="a" d="M56.337,52.159V30.649a1.025,1.025,0,0,0-1.024-1.024H45.069a1.025,1.025,0,0,0-1.024,1.024v21.51H42V13.236H55.312a1.025,1.025,0,0,0,1.024-1.024V5.041a1.025,1.025,0,0,0-1.024-1.024H1.024A1.025,1.025,0,0,0,0,5.041v7.17a1.025,1.025,0,0,0,1.024,1.024H6.146V52.159H1.024v2.049h60.4V52.159ZM46.094,31.673h8.194v7.17H46.094ZM2.049,11.187V6.066H54.288v5.122H2.049Zm6.146,2.049H39.948V52.159H34.826V50.7a5.1,5.1,0,0,0,1.482-8.379l1.941-.971-.917-1.832-1.482.742V38.843a4.106,4.106,0,0,0-4.106-4.1H16.4a4.106,4.106,0,0,0-4.106,4.1v1.416l-1.482-.742L9.894,41.35l1.941.971A5.1,5.1,0,0,0,13.316,50.7v1.46H8.194ZM14.34,40.892V38.843A2.055,2.055,0,0,1,16.4,36.795H31.744A2.056,2.056,0,0,1,33.8,38.843v2.049H14.34Zm1.027,2.049H32.775a3.073,3.073,0,1,1,0,6.146H15.368a3.073,3.073,0,1,1,0-6.146Zm0,8.194h17.41v1.024H15.365V51.135Zm30.726,1.024V40.892h8.194V52.159Z" transform="translate(0 -4.017)"/><rect class="a" width="2.049" height="3.073" transform="translate(15.365 39.948)"/><rect class="a" width="2.049" height="3.073" transform="translate(30.729 39.948)"/></g></g></svg>