<svg xmlns="http://www.w3.org/2000/svg" width="70.876" height="57.917" viewBox="0 0 70.876 57.917"><defs><style>.a{fill:#b9cde2;}</style></defs><g transform="translate(0 -4.017)"><g transform="translate(0 4.017)"><path class="a" d="M65.009,59.57V34.748a1.182,1.182,0,0,0-1.182-1.182H52.007a1.182,1.182,0,0,0-1.182,1.182V59.57H48.461V14.655H63.827a1.182,1.182,0,0,0,1.182-1.182V5.2a1.182,1.182,0,0,0-1.182-1.182H1.182A1.182,1.182,0,0,0,0,5.2v8.274a1.182,1.182,0,0,0,1.182,1.182h5.91V59.57H1.182v2.364H70.876V59.57ZM53.189,35.93h9.456V44.2H53.189ZM2.364,12.291V6.381H62.645v5.91H2.364Zm7.092,2.364H46.1V59.57h-5.91V57.886a5.883,5.883,0,0,0,1.71-9.669l2.24-1.121L43.08,44.982l-1.71.856V44.2a4.738,4.738,0,0,0-4.739-4.728H18.922A4.738,4.738,0,0,0,14.184,44.2v1.633l-1.71-.856L11.417,47.1l2.24,1.121a5.882,5.882,0,0,0,1.709,9.669V59.57H9.456Zm7.092,31.913V44.2a2.372,2.372,0,0,1,2.375-2.364H36.631A2.372,2.372,0,0,1,39.005,44.2v2.364H16.548Zm1.186,2.364H37.82a3.546,3.546,0,1,1,0,7.092H17.733a3.546,3.546,0,1,1,0-7.092Zm0,9.456h20.09V59.57H17.73V58.388ZM53.189,59.57v-13h9.456v13Z" transform="translate(0 -4.017)"/><rect class="a" width="2.364" height="3.546" transform="translate(17.73 46.097)"/><rect class="a" width="2.364" height="3.546" transform="translate(35.459 46.097)"/></g></g></svg>