<svg xmlns="http://www.w3.org/2000/svg" width="70.6" height="70.6" viewBox="0 0 70.6 70.6"><defs><style>.a{fill:#3d5161;stroke:#3d5161;stroke-width:0.6px;}</style></defs><path class="a" d="M35,0A35,35,0,1,0,70,35,35.011,35.011,0,0,0,35,0Zm0,1.458A33.542,33.542,0,1,1,1.458,35,33.531,33.531,0,0,1,35,1.458ZM29.9,17.435a2.187,2.187,0,0,0,0,4.375v4.375a5.11,5.11,0,0,0-5.1,5.1V45.872a5.1,5.1,0,0,0,2.917,4.591v2.7a.729.729,0,0,0,.729.729H41.563a.729.729,0,0,0,.729-.729v-2.7a5.1,5.1,0,0,0,2.917-4.591V31.289a5.11,5.11,0,0,0-5.1-5.1V21.81a2.188,2.188,0,0,0,0-4.375Zm0,1.458H40.1a.729.729,0,1,1,0,1.458H29.9a.729.729,0,0,1,0-1.458Zm1.458,2.917h7.292v4.375H35.729V24.726a.729.729,0,1,0,0-1.458H34.271a.729.729,0,1,0,0,1.458v1.458H31.354ZM29.9,27.643H40.1a3.65,3.65,0,0,1,3.646,3.646V45.872A3.65,3.65,0,0,1,40.1,49.518H29.9a3.65,3.65,0,0,1-3.646-3.646V31.289A3.65,3.65,0,0,1,29.9,27.643ZM35.957,32.5a.748.748,0,0,0-.442.1.731.731,0,0,0-.333.789,2.208,2.208,0,0,1,.065.5,2.08,2.08,0,0,1-.057.479,3.672,3.672,0,0,0-.966-.88.733.733,0,0,0-.689-.048.725.725,0,0,0-.422.544,4.926,4.926,0,0,1-1.339,2.638,4.35,4.35,0,0,0-1.265,2.566,3.964,3.964,0,0,0,1.062,3.056,4.639,4.639,0,0,0,2.791,1.441,2.213,2.213,0,0,0,.632.1l.108,0a2.207,2.207,0,0,0,.513-.091,4.492,4.492,0,0,0,3.888-4.438,8.69,8.69,0,0,0-3.136-6.577A.72.72,0,0,0,35.957,32.5Zm.578,2.455a6.918,6.918,0,0,1,1.512,4.3,3.019,3.019,0,0,1-.832,2.071,3.809,3.809,0,0,0-1.914-3.1.725.725,0,0,0-.709-.057.733.733,0,0,0-.419.578,1.462,1.462,0,0,1-.581,1.194,2.07,2.07,0,0,0-.795,1.45c-.047-.045-.1-.081-.145-.128a2.527,2.527,0,0,1-.689-1.943,3.015,3.015,0,0,1,.929-1.757,7.084,7.084,0,0,0,1.31-2.042,2.145,2.145,0,0,1,.211.55.733.733,0,0,0,.516.538.718.718,0,0,0,.718-.194A3.72,3.72,0,0,0,36.535,34.955ZM35.3,40.124a2.545,2.545,0,0,1,.479,1.387.767.767,0,0,1-.2.558.776.776,0,0,1-.308.2c-.088.008-.173.026-.262.026s-.2-.022-.3-.031a.741.741,0,0,1-.478-.646c.015-.311.078-.365.322-.573A2.716,2.716,0,0,0,35.3,40.124Zm-6.13,10.852H40.833v1.458H29.167Z" transform="translate(0.3 0.3)"/></svg>