<svg xmlns="http://www.w3.org/2000/svg" width="52.08" height="50.581" viewBox="0 0 52.08 50.581"><defs><style>.a{fill:none;stroke:#3d5161;stroke-linecap:round;stroke-linejoin:round;stroke-width:3px;}</style></defs><g transform="translate(-5.533 -7.048)"><path class="a" d="M14,20.687h2.937a5.875,5.875,0,0,1,5.875,5.875v8.812a4.406,4.406,0,0,0,8.812,0V14.812L22.812,6" transform="translate(24.489 8.423)"/><path class="a" d="M4,51V9.875A5.875,5.875,0,0,1,9.875,4H27.5a5.875,5.875,0,0,1,5.875,5.875V51" transform="translate(5.116 4.548)"/><line class="a" x2="33.814" transform="translate(7.033 56.13)"/><path class="a" d="M18,7V9.937a2.937,2.937,0,0,0,2.937,2.937h2.937" transform="translate(32.238 10.36)"/><line class="a" x2="29.348" transform="translate(9.266 29.015)"/></g></svg>