<svg xmlns="http://www.w3.org/2000/svg" width="48.583" height="48.583" viewBox="0 0 48.583 48.583"><defs><style>.a,.c{fill:none;}.b{fill:#f4dbd4;stroke:#f4dbd4;}.b,.c{stroke-linecap:round;stroke-linejoin:round;stroke-width:3.5px;}.c{stroke:#ff7f5c;}</style></defs><path class="a" d="M0,0H48.583V48.583H0Z"/><path class="b" d="M34.334,13.534l-10.8-8.4a5.4,5.4,0,0,0-6.628,0l-10.8,8.4A5.4,5.4,0,0,0,4.03,17.8V32.37a4.049,4.049,0,0,0,4.049,4.049H32.37a4.049,4.049,0,0,0,4.049-4.049V17.8a5.4,5.4,0,0,0-2.085-4.261" transform="translate(4.128 4.097)"/><path class="c" d="M24.194,15C19.721,17.7,12.47,17.7,8,15" transform="translate(8.194 15.364)"/></svg>