<svg xmlns="http://www.w3.org/2000/svg" width="36" height="36.001" viewBox="0 0 36 36.001"><defs><style>.a{fill:#fff;}</style></defs><path class="a" d="M.873,10.408l16.379,7.43a1.8,1.8,0,0,0,1.5,0l16.379-7.43a1.571,1.571,0,0,0,0-2.815L18.749.162a1.8,1.8,0,0,0-1.5,0L.873,7.592a1.572,1.572,0,0,0,0,2.815Zm34.255,6.207-4.084-1.851L19.678,19.915a4.053,4.053,0,0,1-3.355,0L4.958,14.764.873,16.615a1.569,1.569,0,0,0,0,2.813l16.379,7.424a1.806,1.806,0,0,0,1.5,0l16.379-7.424a1.569,1.569,0,0,0,0-2.812Zm0,8.986-4.069-1.844L19.678,28.915a4.053,4.053,0,0,1-3.355,0L4.942,23.756.873,25.6a1.569,1.569,0,0,0,0,2.813l16.379,7.424a1.806,1.806,0,0,0,1.5,0l16.379-7.424a1.569,1.569,0,0,0,0-2.812Z" transform="translate(0 0.001)"/></svg>