<svg xmlns="http://www.w3.org/2000/svg" width="1083.465" height="1083.465" viewBox="0 0 1083.465 1083.465"><defs><style>.a{opacity:0.89;}.b{fill:rgba(0,0,0,0);}.c{fill:#f4dbd4;stroke:#f4dbd4;stroke-linecap:round;stroke-linejoin:round;stroke-width:1.5px;}</style></defs><g transform="translate(-853.62 -89.993)"><g class="a" transform="translate(853.62 89.993)"><path class="b" d="M1083.465,0H0V1083.465H1083.465Z"/><path class="c" d="M270.88,767.311A270.8,270.8,0,0,1,36.22,361.156L270.835,0,505.586,361.156h-.045A270.817,270.817,0,0,1,270.88,767.311ZM157.418,268.793c-.249.338-6.156,8.374-15.018,21.893-8.246,12.58-20.729,32.506-33.368,56-14.205,26.4-25.707,51.828-34.187,75.575-10.6,29.684-16.48,56.811-17.477,80.629s2.723,48.291,11.057,72.737a266.684,266.684,0,0,0,28.586,58.213c4.832,7.491,10.1,14.919,15.645,22.08,4.44,5.729,9.07,11.3,13.761,16.554,7.909,8.859,13.29,13.8,13.515,14l-.01-.03c-.6-2.374-5.985-24.156-10.857-57.461-3-20.48-5.2-41.189-6.549-61.551a691.22,691.22,0,0,1-1.04-74.254c1-23.817,3.507-50.435,7.46-79.112,3.163-22.945,7.251-47.249,12.15-72.236C149.457,299.134,157.336,269.1,157.418,268.793Z" transform="translate(270.943 135.433)"/></g></g></svg>