<svg xmlns="http://www.w3.org/2000/svg" width="36" height="36" viewBox="0 0 36 36"><defs><style>.a,.b{fill:#c44536;}.a{opacity:0.3;}.c,.d{stroke:none;}.d{fill:#c44536;}</style></defs><circle class="a" cx="18" cy="18" r="18"/><g class="b" transform="translate(9.754 9.754)"><path class="c" d="M 8.246337890625 12.99267768859863 C 5.62919807434082 12.99267768859863 3.499997854232788 10.86347770690918 3.499997854232788 8.246337890625 C 3.499997854232788 5.62919807434082 5.62919807434082 3.499997854232788 8.246337890625 3.499997854232788 C 10.86347770690918 3.499997854232788 12.99267768859863 5.62919807434082 12.99267768859863 8.246337890625 C 12.99267768859863 10.86347770690918 10.86347770690918 12.99267768859863 8.246337890625 12.99267768859863 Z"/><path class="d" d="M 8.246337890625 6.999998092651367 C 7.559107780456543 6.999998092651367 6.999998092651367 7.559107780456543 6.999998092651367 8.246337890625 C 6.999998092651367 8.933568000793457 7.559107780456543 9.492677688598633 8.246337890625 9.492677688598633 C 8.933568000793457 9.492677688598633 9.492677688598633 8.933568000793457 9.492677688598633 8.246337890625 C 9.492677688598633 7.559107780456543 8.933568000793457 6.999998092651367 8.246337890625 6.999998092651367 M 8.246337890625 -1.9073486328125e-06 C 12.80066776275635 -1.9073486328125e-06 16.49267768859863 3.692008018493652 16.49267768859863 8.246337890625 C 16.49267768859863 12.80066776275635 12.80066776275635 16.49267768859863 8.246337890625 16.49267768859863 C 3.692008018493652 16.49267768859863 -1.9073486328125e-06 12.80066776275635 -1.9073486328125e-06 8.246337890625 C -1.9073486328125e-06 3.692008018493652 3.692008018493652 -1.9073486328125e-06 8.246337890625 -1.9073486328125e-06 Z"/></g></svg>