<svg xmlns="http://www.w3.org/2000/svg" width="48.583" height="48.583" viewBox="0 0 48.583 48.583"><defs><style>.a,.b{fill:none;}.b{stroke:#f4dbd4;stroke-linecap:round;stroke-linejoin:round;stroke-width:3.5px;}</style></defs><path class="a" d="M0,0H48.583V48.583H0Z"/><path class="b" d="M16.146,7.049a4.049,4.049,0,1,1,8.1,0,14.17,14.17,0,0,1,8.1,12.146v6.073a8.1,8.1,0,0,0,4.049,6.073H4a8.1,8.1,0,0,0,4.049-6.073V19.194a14.17,14.17,0,0,1,8.1-12.146" transform="translate(4.097 3.073)"/><path class="b" d="M9,17v2.024a6.073,6.073,0,1,0,12.146,0V17" transform="translate(9.219 17.413)"/></svg>