<svg xmlns="http://www.w3.org/2000/svg" xmlns:xlink="http://www.w3.org/1999/xlink" width="49.866" height="26.965" viewBox="0 0 49.866 26.965"><defs><style>.a{fill:url(#a);}</style><linearGradient id="a" x1="0.5" x2="0.5" y2="1" gradientUnits="objectBoundingBox"><stop offset="0" stop-color="#3d5161"/><stop offset="1" stop-color="#0c1013"/></linearGradient></defs><path class="a" d="M53.956,17.021l-1.944,0a8.733,8.733,0,0,0-3.79.882l-4.77,2.34-.23-.358a2.889,2.889,0,0,0-2.389-1.322l-3.587-.053a9.066,9.066,0,0,0-4.834,1.394l-14.238,9.2a.978.978,0,0,0-.422.607.965.965,0,0,0,.136.727l.524.81-2.434,1.571a.963.963,0,0,0-.283,1.334l.52.81-4.774,3.086a.965.965,0,0,0,1.047,1.62l4.774-3.09.524.81.524.81-4.778,3.089a.96.96,0,0,0-.286,1.33.971.971,0,0,0,.81.444.951.951,0,0,0,.524-.154l4.777-3.09.524.814a.971.971,0,0,0,.607.418,1.042,1.042,0,0,0,.2.023.943.943,0,0,0,.52-.155l2.434-1.571,1.567,2.43a4.831,4.831,0,0,0,6.669,1.436L41.6,36.934a4.825,4.825,0,0,0,1.432-6.665l-.32-.5,2.019-.52a2.878,2.878,0,0,0,1.955-3.873l4.239-2.208a4.845,4.845,0,0,1,2.166-.546l.931-.011a1.93,1.93,0,0,0,1.906-1.978L55.889,18.9A1.92,1.92,0,0,0,53.956,17.021Zm0,1.933L54,20.684l-.931.011a6.8,6.8,0,0,0-3.037.765l-4.34,2.257L44.5,21.878l4.566-2.238a6.738,6.738,0,0,1,2.943-.682ZM37.22,20.443l3.583.049a.965.965,0,0,1,.8.441l3.221,4.985a.974.974,0,0,1-.573,1.466l-3.315.851a.967.967,0,0,0-.569,1.458l1.047,1.62a2.9,2.9,0,0,1-.859,4l-.81.524-2.619-4.054a2.893,2.893,0,0,0-3.919-.9.309.309,0,0,0-.045.023l-.034.023L28.264,34.07a2.892,2.892,0,0,0-.859,4l2.524,3.9a2.889,2.889,0,0,1-3.1-1.232L24.741,37.5v0l-4.19-6.477-.52-.81,13.428-8.681A7,7,0,0,1,37.22,20.443Zm18.823,4.985a.969.969,0,0,0-.848.5,31.788,31.788,0,0,1-1.963,3.086c-1.123,1.607-2.012,2.874-2.012,4.514a4.823,4.823,0,0,0,9.645,0c0-1.64-.885-2.909-2.008-4.514a31.656,31.656,0,0,1-1.967-3.086A.971.971,0,0,0,56.043,25.427Zm0,2.864c.428.679.844,1.277,1.232,1.831.965,1.381,1.662,2.376,1.662,3.41a2.894,2.894,0,1,1-5.787,0c0-1.032.7-2.032,1.662-3.414C55.2,29.566,55.615,28.966,56.043,28.291Zm-21.352,4.1a1.083,1.083,0,0,1,.207.023.944.944,0,0,1,.606.418l2.619,4.054-6.48,4.19-2.619-4.05a.964.964,0,0,1-.132-.727.944.944,0,0,1,.418-.607l3.549-2.3.237,2.144-1.153.746a.965.965,0,0,0,.524,1.775.951.951,0,0,0,.524-.155l1.65-1.07a.967.967,0,0,0,.437-.916Zm-15.24.482,3.142,4.857-1.62,1.051L19.4,36.35l-1.047-1.62-.524-.81Z" transform="translate(-11 -17.021)"/></svg>