<svg xmlns="http://www.w3.org/2000/svg" width="48.583" height="48.583" viewBox="0 0 48.583 48.583"><defs><style>.a,.b{fill:none;}.b{stroke:#f4dbd4;stroke-linecap:round;stroke-linejoin:round;stroke-width:3.5px;}</style></defs><path class="a" d="M0,0H48.583V48.583H0Z"/><path class="b" d="M17.828,5.666a3.489,3.489,0,0,1,6.781,0,3.49,3.49,0,0,0,5.209,2.158,3.491,3.491,0,0,1,4.8,4.8,3.49,3.49,0,0,0,2.156,5.206,3.489,3.489,0,0,1,0,6.781,3.49,3.49,0,0,0-2.158,5.209,3.491,3.491,0,0,1-4.8,4.8,3.49,3.49,0,0,0-5.206,2.156,3.489,3.489,0,0,1-6.781,0,3.49,3.49,0,0,0-5.209-2.158,3.491,3.491,0,0,1-4.8-4.8,3.49,3.49,0,0,0-2.156-5.206,3.489,3.489,0,0,1,0-6.781,3.49,3.49,0,0,0,2.158-5.209,3.491,3.491,0,0,1,4.8-4.8,3.487,3.487,0,0,0,5.206-2.156Z" transform="translate(3.073 3.073)"/><ellipse class="b" cx="6.274" cy="5.825" rx="6.274" ry="5.825" transform="translate(17.925 18.371)"/></svg>