<svg xmlns="http://www.w3.org/2000/svg" width="215.203" height="81.352" viewBox="0 0 215.203 81.352"><defs><style>.a,.b,.c{fill:none;}.b,.c{stroke:#f4dbd4;stroke-linecap:round;stroke-width:4px;}.b{stroke-linejoin:round;}</style></defs><path class="a" d="M0,0H81.352V81.352H0Z"/><path class="b" d="M14,22.948h3.39a6.779,6.779,0,0,1,6.779,6.779V39.9a5.084,5.084,0,1,0,10.169,0V16.169L24.169,6" transform="translate(33.455 14.338)"/><path class="b" d="M4,58.234V10.779A6.779,6.779,0,0,1,10.779,4H31.117A6.779,6.779,0,0,1,37.9,10.779V58.234" transform="translate(9.559 9.559)"/><path class="c" d="M0,0H202.048" transform="translate(11.154 68.467)"/><path class="b" d="M18,7v3.39a3.39,3.39,0,0,0,3.39,3.39h3.39" transform="translate(43.014 16.728)"/><line class="b" x2="33.867" transform="translate(13.731 37.177)"/></svg>